# xmcd
#
# Track frame offsets: 
#        150
#        30511
#        66291
#        88644
#        119337
#        144344
#        170354
#        205110
#        225103
#        253377
#
# Disc length: 3696 seconds
#
# Revision: 0
# Processed by: cddbd v1.5.2PL0 Copyright (c) Steve Scherf et al.
# Submitted via: ExactAudioCopy v0.99pb3
#
DISCID=7f0e6e0a
DTITLE=Jerry Waddel - Soul Of A Bluesman
DYEAR=2003
DGENRE=Blues
TTITLE0=Lookin' For A Woman
TTITLE1=14 Days
TTITLE2=Hold On Tight
TTITLE3=I Miss My Lady
TTITLE4=Take It Slow
TTITLE5=Good Doctor Blues
TTITLE6=Soul Of A Bluesman
TTITLE7=Sweet Honey Love
TTITLE8=Talk It Out
TTITLE9=Front Door Slamming
EXTD=
EXTT0=
EXTT1=
EXTT2=
EXTT3=
EXTT4=
EXTT5=
EXTT6=
EXTT7=
EXTT8=
EXTT9=
PLAYORDER=
